<?xml version="1.0" encoding="UTF-8"?>
<svg width="52px" height="56px" viewBox="0 0 52 56" version="1.1" xmlns="http://www.w3.org/2000/svg" xmlns:xlink="http://www.w3.org/1999/xlink">
    <!-- Generator: Sketch 55.2 (78181) - https://sketchapp.com -->
    <title>keno28</title>
    <desc>Created with Sketch.</desc>
    <defs>
        <linearGradient x1="50%" y1="2.42841377%" x2="50%" y2="97.2690946%" id="linearGradient-1">
            <stop stop-color="#FFCAAA" offset="1.66807432%"></stop>
            <stop stop-color="#FF8D47" offset="100%"></stop>
        </linearGradient>
        <linearGradient x1="50%" y1="0%" x2="50%" y2="100%" id="linearGradient-2">
            <stop stop-color="#FFFAF7" offset="0%"></stop>
            <stop stop-color="#FFEEE4" offset="100%"></stop>
        </linearGradient>
        <path d="M31.1290323,2.88675135 L43.757438,10.1777648 C46.8514487,11.9640927 48.757438,15.2653629 48.757438,18.8380188 L48.757438,33.4200457 C48.757438,36.9927016 46.8514487,40.2939718 43.757438,42.0802997 L31.1290323,49.3713132 C28.0350215,51.1576411 24.223043,51.1576411 21.1290323,49.3713132 L8.50062655,42.0802997 C5.40661578,40.2939718 3.50062655,36.9927016 3.50062655,33.4200457 L3.50062655,18.8380188 C3.50062655,15.2653629 5.40661578,11.9640927 8.50062655,10.1777648 L21.1290323,2.88675135 C24.223043,1.1004234 28.0350215,1.1004234 31.1290323,2.88675135 Z" id="path-3"></path>
        <linearGradient x1="50%" y1="0.424310811%" x2="50%" y2="97.466347%" id="linearGradient-5">
            <stop stop-color="#F8721E" offset="0%"></stop>
            <stop stop-color="#BB4800" offset="100%"></stop>
        </linearGradient>
        <linearGradient x1="27.3883902%" y1="3.86499305%" x2="84.6816922%" y2="76.9463772%" id="linearGradient-6">
            <stop stop-color="#FFC4A0" offset="0%"></stop>
            <stop stop-color="#F58B49" offset="100%"></stop>
        </linearGradient>
        <circle id="path-7" cx="39.6774194" cy="43.5483871" r="12.5806452"></circle>
        <filter x="-23.8%" y="-23.8%" width="147.7%" height="147.7%" filterUnits="objectBoundingBox" id="filter-8">
            <feOffset dx="0" dy="0" in="SourceAlpha" result="shadowOffsetOuter1"></feOffset>
            <feGaussianBlur stdDeviation="2" in="shadowOffsetOuter1" result="shadowBlurOuter1"></feGaussianBlur>
            <feColorMatrix values="0 0 0 0 0.948341259   0 0 0 0 0.538160474   0 0 0 0 0.283183229  0 0 0 1 0" type="matrix" in="shadowBlurOuter1"></feColorMatrix>
        </filter>
        <linearGradient x1="30.7904479%" y1="27.8211044%" x2="77.097824%" y2="67.1642509%" id="linearGradient-9">
            <stop stop-color="#FFFFFF" offset="0%"></stop>
            <stop stop-color="#FFE1CE" offset="100%"></stop>
        </linearGradient>
        <linearGradient x1="27.3883902%" y1="3.86499305%" x2="85.628604%" y2="76.8019769%" id="linearGradient-10">
            <stop stop-color="#FFC4A0" offset="0%"></stop>
            <stop stop-color="#F17223" offset="100%"></stop>
        </linearGradient>
        <circle id="path-11" cx="41.6129032" cy="42.5806452" r="13.5483871"></circle>
        <filter x="-2.6%" y="-2.6%" width="105.2%" height="105.2%" filterUnits="objectBoundingBox" id="filter-12">
            <feGaussianBlur stdDeviation="0.35" in="SourceAlpha" result="shadowBlurInner1"></feGaussianBlur>
            <feOffset dx="0" dy="0.7" in="shadowBlurInner1" result="shadowOffsetInner1"></feOffset>
            <feComposite in="shadowOffsetInner1" in2="SourceAlpha" operator="arithmetic" k2="-1" k3="1" result="shadowInnerInner1"></feComposite>
            <feColorMatrix values="0 0 0 0 1   0 0 0 0 0.824141895   0 0 0 0 0.714824695  0 0 0 1 0" type="matrix" in="shadowInnerInner1"></feColorMatrix>
        </filter>
        <linearGradient x1="36.2434707%" y1="10.4284567%" x2="77.31569%" y2="80.5303934%" id="linearGradient-13">
            <stop stop-color="#FFF8F4" offset="0%"></stop>
            <stop stop-color="#FFE3D2" offset="100%"></stop>
        </linearGradient>
    </defs>
    <g id="蓝色" stroke="none" stroke-width="1" fill="none" fill-rule="evenodd">
        <g id="彩种icon_1" transform="translate(-557.000000, -358.000000)">
            <g id="keno28" transform="translate(553.000000, 356.000000)">
                <path d="M36.5,3.75277675 L49.4807621,11.2472233 C53.5029761,13.5694496 55.9807621,17.8611008 55.9807621,22.5055535 L55.9807621,37.4944465 C55.9807621,42.1388992 53.5029761,46.4305504 49.4807621,48.7527767 L36.5,56.2472233 C32.477786,58.5694496 27.522214,58.5694496 23.5,56.2472233 L10.5192379,48.7527767 C6.49702389,46.4305504 4.01923789,42.1388992 4.01923789,37.4944465 L4.01923789,22.5055535 C4.01923789,17.8611008 6.49702389,13.5694496 10.5192379,11.2472233 L23.5,3.75277675 C27.522214,1.43055042 32.477786,1.43055042 36.5,3.75277675 Z" id="蒙版备份-3" fill="url(#linearGradient-1)"></path>
                <g id="Shape-+-加拿大-+-蒙版-+-椭圆形-copy备份-+-2-+-椭圆形-copy备份-+-8蒙版" transform="translate(3.870968, 3.870968)">
                    <mask id="mask-4" fill="white">
                        <use xlink:href="#path-3"></use>
                    </mask>
                    <use id="蒙版" fill="url(#linearGradient-2)" xlink:href="#path-3"></use>
                    <path d="M41.3200343,32.8447112 C41.3335008,32.2789544 41.3537006,31.2855906 41.3671671,30.640891 L41.3873669,29.4699059 L41.2830013,29.3679381 C41.2055688,29.2922846 41.1483361,29.2659703 41.0574371,29.2659703 C40.9901044,29.2659703 40.0844807,29.3843846 39.0408251,29.529113 C37.1353119,29.7922558 36.8996477,29.81857 36.8996477,29.7593629 C36.8996477,29.7429165 36.9737136,29.5225345 37.0646126,29.2758382 C37.3507763,28.4929886 37.3575095,28.4074673 37.1420451,28.1739281 C37.0747125,28.0982746 36.2532545,27.4371285 35.3173311,26.7036182 C33.2232866,25.0622656 32.9202898,24.8188586 32.9034566,24.7728086 C32.8967234,24.7530729 33.0381219,24.6708408 33.2199199,24.5951873 C33.9269125,24.2958624 34.0380113,24.2070518 33.9841452,23.9833805 C33.9740453,23.9307519 33.8057138,23.3551272 33.6104492,22.703849 C33.182887,21.2532749 33.1862536,21.2730106 33.2603195,21.2730106 C33.2906192,21.2730106 33.8360134,21.3848462 34.4756733,21.5197068 C35.1153332,21.6545675 35.6640941,21.7664031 35.6977604,21.7664031 C35.829059,21.7664031 35.9872907,21.6611461 36.0512567,21.5361533 C36.084923,21.4670783 36.1724554,21.1874892 36.2465213,20.9144786 C36.3172205,20.6414681 36.3879198,20.421086 36.3980197,20.4243753 C36.4114862,20.4309539 36.7952821,20.8421144 37.253144,21.3387962 C37.7110058,21.8354781 38.1722342,22.3288707 38.2765998,22.437417 C38.5627634,22.726874 38.7714946,22.7926597 38.922993,22.6347741 C39.0441917,22.5097813 39.0239919,22.2992671 38.7916944,21.1414392 C38.2732332,18.5725085 38.1385679,17.8784696 38.1587677,17.8620232 C38.1688676,17.8521553 38.4314648,17.9771481 38.7411949,18.138323 C39.5727528,18.5725085 39.6973181,18.6086906 39.8387166,18.4672514 C39.8791162,18.42778 40.2831119,17.7403197 40.7376071,16.9410237 C41.1887357,16.1384385 41.5725316,15.483871 41.5826315,15.483871 C41.6230311,15.483871 41.7038302,15.6285995 42.390623,16.921288 C42.764319,17.6219055 43.1043487,18.253448 43.1514816,18.3225229 C43.2592138,18.4869871 43.4208121,18.5560621 43.5925103,18.5100121 C43.6598429,18.4935657 44.0032392,18.3225229 44.3533689,18.1317445 C44.7068651,17.9442553 44.9963954,17.7929482 45.0031287,17.7995268 C45.0098619,17.8061054 44.8381637,18.7106584 44.6226994,19.8125685 C44.2052371,21.950603 44.151371,22.3584742 44.2523699,22.5492527 C44.2995028,22.6380634 44.3264358,22.6545098 44.434168,22.6545098 C44.6832987,22.6512205 44.7068651,22.6314848 46.0232179,21.1809106 C46.4171137,20.7434359 46.7537768,20.3947718 46.7672433,20.4112182 C46.7807099,20.4243753 46.8480425,20.6348895 46.9153751,20.8782965 C47.0466737,21.3420855 47.1207396,21.5164176 47.2217385,21.6085175 C47.3833368,21.7466674 47.4035366,21.7466674 48.6559234,21.4835247 C49.3056832,21.3486641 49.8746438,21.2401177 49.9150434,21.2466963 C49.9857426,21.2565641 49.982376,21.2697213 49.7770115,21.9802066 C49.6625461,22.3782099 49.480748,22.9900167 49.3763824,23.3419701 C49.1642847,24.059034 49.1642847,24.1248197 49.3662825,24.2531017 C49.4235152,24.2925731 49.6692793,24.4109874 49.9049435,24.5129552 C50.1406077,24.6182122 50.329139,24.72018 50.3224057,24.7399157 C50.3156725,24.7596515 49.3561826,25.5326332 48.1913283,26.4569219 C47.0264739,27.3845 46.0434177,28.1805067 46.0063847,28.2298459 C45.8986525,28.3679958 45.9289522,28.5390386 46.1511499,29.1179526 C46.4171137,29.8152807 46.4103804,29.7922558 46.3329479,29.7922558 C46.295915,29.7922558 45.3667248,29.6738415 44.2624698,29.529113 C43.1615815,29.3843846 42.2155581,29.2659703 42.161692,29.2659703 C42.0977261,29.2659703 42.0303934,29.2988632 41.9664274,29.3646489 C41.8351288,29.4995095 41.8317622,29.5455595 41.8957282,31.568469 C41.9260279,32.4993364 41.9495943,33.4006002 41.9495943,33.5683536 L41.9495943,33.8709677 L41.6230311,33.8709677 L41.2998345,33.8709677 L41.3200343,32.8447112 Z" id="Shape" fill="#FFE8D8" fill-rule="nonzero" mask="url(#mask-4)" transform="translate(41.612903, 24.677419) rotate(27.000000) translate(-41.612903, -24.677419) "></path>
                    <path d="M12.9202427,11.6129032 L12.9202427,13.4440663 L13.4529447,13.4440663 C14.2298056,13.4440663 14.7699008,13.6512261 15.0732465,14.0655519 C15.3248015,14.3910937 15.4468778,14.9052939 15.4394791,15.6081681 L15.4394791,19.4369636 C15.4394791,19.9696682 15.306305,20.3876871 15.0399526,20.6910328 C14.7883977,21.0091759 14.3777773,21.168245 13.8080793,21.168245 L12.9979284,21.168245 L12.9979284,20.0695472 L13.5306304,20.0695472 C13.8857668,20.0621485 14.0707309,19.8290937 14.0855283,19.3703759 L14.0855283,15.2974253 C14.1003256,14.779518 13.8746694,14.5279668 13.4085528,14.5427641 L12.9202427,14.5427641 L12.9202427,18.0497189 C12.912844,18.8857692 12.7019849,19.5997307 12.2876591,20.1916247 C11.8733332,20.7761201 11.3258394,21.1423491 10.6451613,21.2903226 L10.6451613,19.7810003 C10.9411083,19.6330268 11.159366,19.4406641 11.2999408,19.2039065 C11.4701104,18.9153581 11.5551938,18.5676256 11.5551938,18.1606984 L11.5551938,14.5427641 L10.722847,14.5427641 L10.722847,13.4440663 L11.5551938,13.4440663 L11.5551938,11.6129032 L12.9202427,11.6129032 Z M20.1561113,16.6291802 C20.1339152,17.8721577 20.0488318,18.8117755 19.9008582,19.4480616 C19.7528847,20.076949 19.493935,20.5245621 19.1240012,20.7909145 C18.7688648,21.0424694 18.287958,21.168245 17.6812666,21.168245 L16.1164546,21.168245 L16.1164546,13.521752 L17.4482095,13.521752 L17.4482095,20.0251554 L17.7700503,20.0251554 C18.3323497,20.0473514 18.6763829,19.714416 18.8021604,19.0263392 C18.8983432,18.4788372 18.9501331,17.6797922 18.9575318,16.6291802 C18.9649305,15.7191431 18.9279377,14.9829859 18.8465522,14.4206866 C18.7355721,13.5846362 18.3767417,13.1777152 17.7700503,13.1999112 L16.1164546,13.1999112 L16.1164546,12.0457236 L17.7589524,12.0457236 C18.3212517,12.0383249 18.7799627,12.1567019 19.1350991,12.4008582 C19.527229,12.6598119 19.7935773,13.0815301 19.9341521,13.6660255 C20.0895243,14.2949129 20.16351,15.2826213 20.1561113,16.6291802 Z M31.587008,19.1151228 L31.587008,19.8808819 L27.4585676,19.8808819 C27.4141756,20.3543972 27.210715,20.6947311 26.8481799,20.9018941 C26.5300369,21.0794623 26.060228,21.168245 25.4387393,21.168245 L23.6075762,21.168245 L23.6075762,20.4468778 L25.1834862,20.4468778 C25.6126094,20.4468778 25.8308671,20.2582144 25.8382658,19.8808819 L21.7431193,19.8808819 L21.7431193,19.1151228 L25.8382658,19.1151228 L25.8382658,18.6712045 L22.3868008,18.6712045 L22.3868008,18.0719148 L25.8382658,18.0719148 L25.8382658,17.6723883 L21.9983723,17.6723883 L21.9983723,16.9066292 L29.3341225,16.9066292 C29.4894947,16.9066292 29.6189696,16.8696364 29.7225511,16.7956496 C29.7817405,16.7364602 29.8224326,16.680971 29.8446286,16.6291802 L31.2207754,16.6291802 C31.0654032,17.0804994 30.8804391,17.3616449 30.6658775,17.472625 C30.4513159,17.6205985 30.0517934,17.6871856 29.467298,17.6723883 L27.4696656,17.6723883 L27.4696656,18.0719148 L30.9211305,18.0719148 L30.9211305,18.6712045 L27.4696656,18.6712045 L27.4696656,19.1151228 L31.587008,19.1151228 Z M23.5076946,12.0457236 L24.972625,12.0457236 C24.8912396,12.5488335 24.6396884,12.9816496 24.2179639,13.3441847 L29.200947,13.3441847 C29.1343589,13.2701979 29.0788697,13.1888137 29.0344777,13.1000296 C28.9308962,12.9224614 28.7274357,12.8336786 28.42409,12.8336786 L25.2611719,12.8336786 L25.2611719,12.0457236 L28.7237348,12.0457236 C29.1232633,12.0383249 29.4192059,12.0753177 29.6115715,12.1567032 C29.8853225,12.2380886 30.0998808,12.4193534 30.255253,12.7005031 C30.4032265,12.9520581 30.5992885,13.1370222 30.8434448,13.255401 C31.0358104,13.3515838 31.2836623,13.4181709 31.587008,13.4551642 L31.587008,14.4539805 C31.0321073,14.4021897 30.5364035,14.2653163 30.0998816,14.043356 C29.8927187,13.9471732 29.7040553,13.8250969 29.5338858,13.6771234 L29.5338858,13.9878662 L23.7518497,13.9878662 L23.7518497,13.6882214 L23.674164,13.7326132 C23.1562567,14.0507563 22.5125815,14.2875103 21.7431193,14.4428825 L21.7431193,13.4551642 C22.2166345,13.3589815 22.616157,13.1888145 22.9416987,12.9446582 C23.2894365,12.6931032 23.4780999,12.3934613 23.5076946,12.0457236 Z M30.6547795,15.3973069 C30.6695769,15.782038 30.5216056,16.0705821 30.2108612,16.2629476 C29.9519076,16.4183198 29.5893779,16.4960047 29.1232613,16.4960047 L22.6753477,16.4960047 L22.6753477,15.375111 L24.195768,15.375111 L24.195768,15.7524416 L28.8236165,15.7524416 C29.0603741,15.7376442 29.1750518,15.630365 29.1676532,15.4306008 C29.1454571,15.2530326 29.0307794,15.1605505 28.8236165,15.1531518 L22.6753477,15.1531518 L22.6753477,14.3984907 L29.1232613,14.3984907 C29.5597832,14.3984907 29.911215,14.4724763 30.1775673,14.6204498 C30.4735144,14.7832207 30.6325835,15.0421705 30.6547795,15.3973069 Z M38.5454276,11.6129032 L38.5454276,13.9545724 L42.4741048,13.9545724 L42.4741048,15.097662 L38.5121338,15.097662 L38.5121338,15.1642498 C38.7562901,15.9781041 39.148414,16.7290584 39.6885173,17.4171352 C40.5689597,18.5787273 41.5677659,19.3592759 42.684966,19.7588044 L42.684966,21.2792246 C41.2200282,20.8427028 39.9289787,19.9659728 38.8117786,18.6490086 C38.4196488,18.205088 38.0830141,17.7204821 37.8018645,17.1951761 C37.4541267,17.8166648 36.9954157,18.4270464 36.4257177,19.0263392 C35.323315,20.1805326 34.1284468,20.9314869 32.8410772,21.2792246 L32.8410772,19.7588044 C33.8251011,19.4554587 34.7462224,18.8228814 35.6044688,17.8610536 C36.3961271,16.9288204 36.8437402,16.0076991 36.9473217,15.097662 L33.0297425,15.097662 L33.0297425,13.9545724 L36.9584197,13.9545724 L36.9584197,11.6129032 L38.5454276,11.6129032 Z" id="加拿大" fill="url(#linearGradient-5)" fill-rule="nonzero" mask="url(#mask-4)"></path>
                    <circle id="蒙版" fill="url(#linearGradient-6)" mask="url(#mask-4)" cx="20.3225806" cy="43.5483871" r="18.3870968"></circle>
                    <g id="椭圆形-copy备份" mask="url(#mask-4)" fill="black" fill-opacity="1">
                        <use filter="url(#filter-8)" xlink:href="#path-7"></use>
                    </g>
                    <path d="M22.2677419,42.6348387 L15.5825806,42.6348387 C15.2419338,42.6348387 14.9190338,42.5816134 14.613871,42.4751613 C14.3087082,42.3687091 14.0603235,42.2338718 13.8687097,42.0706452 C13.6770958,41.9074185 13.5245167,41.669679 13.4109677,41.3574194 C13.2974188,41.0451597 13.2406452,40.7187114 13.2406452,40.3780645 C13.2406452,40.1651602 13.269032,39.9593558 13.3258065,39.7606452 C13.3825809,39.5619345 13.4925798,39.3312916 13.6558065,39.0687097 C13.8190331,38.8061277 14.1277397,38.4406475 14.5819355,37.9722581 C15.4051654,37.2483835 16.0687072,36.6912923 16.5725806,36.3009677 C17.0764541,35.9106432 17.7116091,35.3606487 18.4780645,34.6509677 C18.9890348,34.1967719 19.2977414,33.9129038 19.4041935,33.7993548 C19.5106457,33.6858059 19.6064512,33.5616136 19.6916129,33.4267742 C19.7767746,33.2919348 19.8193548,33.1570974 19.8193548,33.0222581 L19.8193548,32.6496774 C19.8193548,32.5361285 19.790968,32.4367746 19.7341935,32.3516129 C19.6774191,32.2664512 19.5816136,32.1848391 19.4467742,32.1067742 C19.3119348,32.0287093 19.1451623,31.9612906 18.9464516,31.9045161 C18.7477409,31.8477417 18.4851629,31.8193548 18.1587097,31.8193548 C17.8180628,31.8193548 17.4951628,31.8619351 17.19,31.9470968 C16.8848372,32.0322585 16.6045174,32.1670959 16.3490323,32.3516129 C16.0935471,32.53613 15.870001,32.7703212 15.6783871,33.0541935 C15.4867732,33.3380659 15.2916139,33.7070945 15.0929032,34.1612903 L12.9212903,33.1393548 C13.2335499,32.3587058 13.5351598,31.7590344 13.826129,31.3403226 C14.1170982,30.9216108 14.5109653,30.5135504 15.0077419,30.116129 C15.5045186,29.7187077 16.0012878,29.459678 16.4980645,29.3390323 C16.9948412,29.2183865 17.5767709,29.1580645 18.243871,29.1580645 C18.9535519,29.1580645 19.5745135,29.2396766 20.1067742,29.4029032 C20.6390349,29.5661298 21.0861272,29.8038694 21.4480645,30.116129 C21.8100018,30.4283887 22.0867732,30.7903205 22.2783871,31.2019355 C22.470001,31.6135504 22.5658065,32.0961263 22.5658065,32.6496774 C22.5658065,33.1038732 22.5303229,33.4906436 22.4593548,33.81 C22.3883867,34.1293564 22.2677428,34.4238696 22.0974194,34.6935484 C21.9270959,34.9632272 21.7248399,35.2151601 21.4906452,35.4493548 C21.2564504,35.6835496 20.8341966,36.0561265 20.223871,36.5670968 C19.3012857,37.3477458 18.6270989,37.9154821 18.2012903,38.2703226 C17.7754817,38.6251631 17.2929059,39.0509653 16.7535484,39.5477419 C16.583225,39.7748398 16.4980645,39.9167739 16.4980645,39.9735484 C16.4980645,40.0303229 16.6045151,40.0587097 16.8174194,40.0587097 L22.8425806,40.0587097 L22.2677419,42.6348387 Z" id="2" fill="url(#linearGradient-9)" fill-rule="nonzero" mask="url(#mask-4)" transform="translate(17.881935, 35.896452) rotate(23.000000) translate(-17.881935, -35.896452) "></path>
                    <g id="椭圆形-copy备份" mask="url(#mask-4)">
                        <use fill="url(#linearGradient-10)" fill-rule="evenodd" xlink:href="#path-11"></use>
                        <use fill="black" fill-opacity="1" filter="url(#filter-12)" xlink:href="#path-11"></use>
                    </g>
                    <path d="M39.723871,37.6529032 C39.723871,37.4787088 39.6890326,37.3103234 39.6193548,37.1477419 C39.5496771,36.9851605 39.459678,36.8487102 39.3493548,36.7383871 C39.2390317,36.628064 39.0909687,36.5264521 38.9051613,36.4335484 C38.7193539,36.3406447 38.469679,36.2941935 38.156129,36.2941935 C37.6103199,36.2941935 37.2125819,36.4306438 36.9629032,36.7035484 C36.7132246,36.976453 36.5883871,37.3393526 36.5883871,37.7922581 C36.5883871,37.9316136 36.6116127,38.0796766 36.6580645,38.2364516 C36.7045164,38.3932266 36.8061282,38.5412896 36.9629032,38.6806452 C37.1196782,38.8200007 37.2909668,38.9216126 37.4767742,38.9854839 C37.6625816,39.0493552 37.8890309,39.0812903 38.156129,39.0812903 C38.469679,39.0812903 38.7193539,39.0493552 38.9051613,38.9854839 C39.0909687,38.9216126 39.2390317,38.8316135 39.3493548,38.7154839 C39.459678,38.5993543 39.5496771,38.4512912 39.6193548,38.2712903 C39.6890326,38.0912894 39.723871,37.8851625 39.723871,37.6529032 Z M40.3335484,41.9380645 C40.3335484,41.7638701 40.2870972,41.5751623 40.1941935,41.3719355 C40.1012899,41.1687087 39.9445172,40.9509689 39.723871,40.7187097 C39.5845154,40.8116134 39.459678,40.8696773 39.3493548,40.8929032 C39.2390317,40.9161291 39.125807,40.9393547 39.0096774,40.9625806 C38.8935478,40.9858066 38.7803231,40.9974194 38.67,40.9974194 L38.2954839,40.9974194 C38.0167728,40.9974194 37.7554851,40.9741938 37.5116129,40.9277419 C37.2677407,40.8812901 37.0529042,40.8116134 36.8670968,40.7187097 C36.5883857,40.9045171 36.3938715,41.110644 36.2835484,41.3370968 C36.1732253,41.5635495 36.1180645,41.7870957 36.1180645,42.0077419 C36.1180645,42.2400012 36.1529029,42.4461281 36.2225806,42.626129 C36.2922584,42.8061299 36.4170959,42.9745153 36.5970968,43.1312903 C36.7770977,43.2880653 37.0151598,43.4129028 37.3112903,43.5058065 C37.6074208,43.5987101 37.9587076,43.6451613 38.3651613,43.6451613 C39.0038742,43.6451613 39.4916112,43.4854855 39.8283871,43.166129 C40.165163,42.8467726 40.3335484,42.4374219 40.3335484,41.9380645 Z M42.3716129,41.8683871 C42.3716129,42.3677444 42.2932266,42.8467719 42.1364516,43.3054839 C41.9796766,43.7641958 41.7300017,44.1532242 41.3874194,44.4725806 C41.044837,44.7919371 40.6238735,45.0503216 40.1245161,45.2477419 C39.6251588,45.4451623 39.038713,45.543871 38.3651613,45.543871 C37.6799966,45.543871 37.0761316,45.4567751 36.5535484,45.2825806 C36.0309651,45.1083862 35.5896792,44.8587113 35.2296774,44.5335484 C34.8696756,44.2083855 34.5880655,43.8193571 34.3848387,43.3664516 C34.1816119,42.9135461 34.08,42.4141963 34.08,41.8683871 C34.08,41.4619335 34.1699991,41.0670987 34.35,40.683871 C34.5300009,40.3006432 34.8464493,39.9290341 35.2993548,39.5690323 C35.0787086,39.2903212 34.9103232,38.9941951 34.7941935,38.6806452 C34.6780639,38.3670952 34.62,38.024518 34.62,37.6529032 C34.62,37.1535459 34.7099991,36.7006472 34.89,36.2941935 C35.0700009,35.8877399 35.3196758,35.5364531 35.6390323,35.2403226 C35.9583887,34.9441921 36.3329011,34.7177427 36.7625806,34.5609677 C37.1922602,34.4041928 37.6799973,34.3258065 38.2258065,34.3258065 C38.8180675,34.3258065 39.3058045,34.39258 39.6890323,34.526129 C40.07226,34.6596781 40.4351596,34.8745146 40.7777419,35.1706452 C41.1203243,35.4667757 41.3699992,35.8296753 41.5267742,36.2593548 C41.6835492,36.6890344 41.7619355,37.1303203 41.7619355,37.5832258 C41.7619355,38.0012924 41.7183875,38.3670952 41.6312903,38.6806452 C41.5441931,38.9941951 41.4077429,39.2903212 41.2219355,39.5690323 C41.5819373,39.8825822 41.8635474,40.2309658 42.0667742,40.6141935 C42.270001,40.9974213 42.3716129,41.4154816 42.3716129,41.8683871 Z" id="8" fill="url(#linearGradient-13)" fill-rule="nonzero" mask="url(#mask-4)" transform="translate(38.225806, 39.934839) rotate(-13.000000) translate(-38.225806, -39.934839) "></path>
                </g>
            </g>
        </g>
    </g>
</svg>